<svg width="96" height="96" viewBox="0 0 96 96" xmlns="http://www.w3.org/2000/svg">
  <!-- crest = 3 waveform bars, accent #4FD1B0 -->
  <rect x="34" y="14" width="7" height="18" rx="3.5" fill="#4FD1B0"/>
  <rect x="45" y="6"  width="7" height="26" rx="3.5" fill="#4FD1B0"/>
  <rect x="56" y="16" width="7" height="16" rx="3.5" fill="#4FD1B0"/>
  <!-- head: profile facing right -->
  <path d="M28 58 C28 40 40 30 52 30 C66 30 76 41 76 55 C76 70 65 82 48 82 L36 82 C31 82 28 78 28 72 Z" fill="#1E1E24" stroke="#4FD1B0" stroke-width="3"/>
  <!-- beak -->
  <path d="M74 48 C84 50 86 58 80 63 C77 66 72 66 69 63 C73 59 74 54 74 48 Z" fill="#4FD1B0"/>
  <!-- eye -->
  <circle cx="56" cy="50" r="5" fill="#ECECF1"/>
  <circle cx="57.5" cy="50" r="2.4" fill="#101014"/>
</svg>
